<svg xmlns="http://www.w3.org/2000/svg" version="1.1" xmlns:xlink="http://www.w3.org/1999/xlink" xmlns:svgjs="http://svgjs.dev/svgjs" width="120px" height="90px"><svg version="1.0" xmlns="http://www.w3.org/2000/svg" width="120px" height="90px" viewBox="0 0 3200.000000 1904.000000" preserveAspectRatio="xMidYMid meet">
<g transform="translate(0.000000,1904.000000) scale(0.100000,-0.100000)" fill="#000000" stroke="none">
<path d="M7850 13735 l0 -5305 -54 -42 c-30 -24 -1602 -1224 -3494 -2668
-1892 -1444 -3439 -2626 -3438 -2626 1 -1 1558 157 3461 352 1903 194 3475
354 3493 354 l32 0 0 -1900 0 -1900 4558 0 c2753 0 4682 4 4872 10 525 17 966
62 1450 151 2385 437 4501 1752 5952 3699 338 453 658 981 919 1515 510 1044
816 2119 923 3240 33 342 40 502 40 900 -1 481 -23 831 -79 1230 -8 54 -13
100 -12 101 1 1 1048 799 2327 1774 1279 975 2331 1777 2337 1784 9 8 -887
-48 -2853 -179 -2557 -170 -2866 -189 -2878 -175 -7 8 -32 51 -56 95 -195 359
-542 883 -832 1252 -418 533 -946 1074 -1463 1499 -1397 1148 -3093 1866
-4900 2073 -294 34 -531 50 -875 61 -197 6 -2119 10 -4877 10 l-4553 0 0
-5305z m9615 2402 c715 -103 1322 -377 1912 -864 163 -135 488 -459 627 -628
487 -586 889 -1297 1171 -2070 32 -88 61 -163 65 -167 3 -4 626 1 1384 12 759
11 1381 18 1384 16 2 -3 -20 -12 -50 -21 -29 -8 -1115 -340 -2413 -736 -2334
-713 -2390 -731 -5060 -1601 -1485 -484 -3334 -1087 -4108 -1340 -775 -253
-1410 -458 -1413 -455 -3 2 355 427 795 943 l800 939 0 2991 c1 1645 4 2994 8
2998 4 3 1080 5 2392 3 2197 -3 2395 -4 2506 -20z m5769 -6049 c-531 -567
-1504 -1609 -1517 -1625 -14 -16 -23 -61 -38 -195 -102 -906 -342 -1804 -694
-2598 -741 -1671 -1938 -2780 -3296 -3054 -312 -63 -143 -60 -2751 -63 l-2378
-4 0 1581 0 1580 -32 0 c-18 0 -640 -9 -1383 -20 -742 -12 -1398 -20 -1456
-18 l-106 3 2431 759 c1922 600 2949 927 4906 1564 1361 443 2477 808 2480
812 5 6 3835 1307 3854 1309 6 1 -4 -14 -20 -31z"></path>
</g>
</svg><style>@media (prefers-color-scheme: light) { :root { filter: none; } }
@media (prefers-color-scheme: dark) { :root { filter: none; } }
</style></svg>